<svg width="591" height="339" viewBox="0 0 591 339" fill="none" xmlns="http://www.w3.org/2000/svg">
<g filter="url(#filter0_d)">
<path d="M577 141.813C577 215.164 518.006 274.626 445.234 274.626C440.641 274.626 436.029 274.626 431.415 274.626L396.151 319.589V274.626C306.201 274.626 216.25 274.628 126.301 274.628C64.2787 274.628 14 223.95 14 161.435C14 98.9203 64.2787 48.2421 126.301 48.2421C137.399 48.2421 148.122 49.865 158.248 52.8882C178.833 29.1676 209.084 14.1855 242.806 14.1855C282.336 14.1855 317.095 34.7717 337.108 65.888C360.921 31.4982 400.471 9 445.234 9C518.006 9 577 68.4624 577 141.813Z" fill="#556D75"/>
</g>
<g filter="url(#filter1_i)">
<path d="M577 141.813C577 215.164 518.006 274.626 445.234 274.626C440.641 274.626 436.029 274.626 431.415 274.626L396.151 319.589V274.626C306.201 274.626 216.25 274.628 126.301 274.628C64.2787 274.628 14 223.95 14 161.435C14 98.9203 64.2787 48.2421 126.301 48.2421C137.399 48.2421 148.122 49.865 158.248 52.8882C178.833 29.1676 209.084 14.1855 242.806 14.1855C282.336 14.1855 317.095 34.7717 337.108 65.888C360.921 31.4982 400.471 9 445.234 9C518.006 9 577 68.4624 577 141.813Z" fill="#FFD301"/>
</g>
<path fill-rule="evenodd" clip-rule="evenodd" d="M95.4991 181.159L110.711 143.93L125.898 181.159H95.4991ZM103.766 121.506L65.6475 212.893H82.9454L90.3988 194.666H130.973L138.477 212.893H155.648L117.63 121.506H103.766ZM199.134 166.087H181.455V136.324H199.134C205.684 136.324 213.405 140.928 213.405 151.282C213.405 161.457 205.684 166.163 199.134 166.163V166.087ZM199.897 121.646H165.072V213.096H181.442V180.904H199.91C215.046 180.904 229.545 168.719 229.545 151.269C229.545 132.801 214.282 121.506 199.783 121.506L199.897 121.646ZM256.255 136.337H273.935C280.422 136.337 288.18 140.916 288.18 151.282C288.18 161.457 280.422 166.163 273.935 166.163H256.255V136.388V136.337ZM256.255 180.904H274.698C289.834 180.904 304.333 168.719 304.333 151.269C304.333 132.801 289.071 121.506 274.571 121.506H239.721V212.893H256.128V180.904H256.255ZM388.025 121.506H371.744V176.198C371.744 192.441 363.477 199.525 351.14 199.525C338.675 199.525 330.407 192.44 330.407 176.186V121.494H314.127V177.839C314.127 202.132 330.408 214.216 351.14 214.216C371.617 214.216 388.025 202.132 388.025 177.712V121.506ZM402.525 212.893H418.309V146.817H402.665L402.525 212.893ZM410.525 120.489C405.437 120.489 401.113 124.533 401.113 129.774C401.113 135.027 405.437 139.084 410.525 139.084C415.485 139.084 419.81 135.014 419.81 129.774C419.81 124.533 415.485 120.489 410.525 120.489ZM477.643 134.76C495.832 134.76 509.734 149.183 509.734 167.409C509.734 185.725 495.87 199.843 477.682 199.843C459.493 199.843 445.579 185.725 445.579 167.282C445.579 148.84 459.442 134.594 477.669 134.594L477.643 134.76ZM477.669 214.47C504.506 214.47 526.001 193.992 526.001 167.155C526.001 140.191 504.506 119.713 477.669 119.713C450.959 119.713 429.464 140.318 429.464 167.155C429.464 193.992 450.959 214.47 477.669 214.47Z" fill="#002F47"/>
<path d="M407.36 93.0973C407.657 93.0973 407.92 93.212 408.149 93.4414L410.295 95.7693C409.107 97.2403 407.643 98.3671 405.902 99.1498C404.175 99.9325 402.097 100.324 399.668 100.324C397.495 100.324 395.538 99.9528 393.797 99.2105C392.07 98.4683 390.592 97.436 389.364 96.1134C388.136 94.7909 387.192 93.212 386.53 91.3767C385.883 89.5414 385.559 87.5374 385.559 85.3647C385.559 83.165 385.91 81.1543 386.611 79.3324C387.313 77.4971 388.298 75.9182 389.567 74.5957C390.849 73.2732 392.374 72.2476 394.141 71.5189C395.909 70.7766 397.866 70.4055 400.012 70.4055C402.144 70.4055 404.033 70.7564 405.68 71.4581C407.34 72.1599 408.75 73.0775 409.91 74.2111L408.089 76.7414C407.981 76.9033 407.839 77.045 407.663 77.1665C407.502 77.288 407.272 77.3487 406.975 77.3487C406.773 77.3487 406.564 77.2947 406.348 77.1867C406.132 77.0653 405.896 76.9236 405.639 76.7617C405.383 76.5862 405.086 76.3973 404.749 76.1949C404.411 75.9924 404.02 75.8103 403.574 75.6483C403.129 75.4729 402.61 75.3312 402.016 75.2232C401.436 75.1018 400.761 75.041 399.992 75.041C398.683 75.041 397.481 75.2772 396.388 75.7495C395.309 76.2084 394.378 76.8831 393.595 77.7738C392.812 78.6509 392.205 79.7305 391.773 81.0126C391.341 82.2811 391.125 83.7318 391.125 85.3647C391.125 87.0111 391.355 88.4753 391.814 89.7573C392.286 91.0393 392.92 92.1189 393.716 92.9961C394.513 93.8733 395.45 94.548 396.53 95.0204C397.61 95.4792 398.77 95.7086 400.012 95.7086C400.754 95.7086 401.422 95.6681 402.016 95.5871C402.623 95.5062 403.176 95.378 403.676 95.2025C404.188 95.0271 404.668 94.8044 405.113 94.5345C405.572 94.2511 406.024 93.907 406.469 93.5022C406.604 93.3807 406.746 93.2862 406.894 93.2188C407.043 93.1378 407.198 93.0973 407.36 93.0973ZM431.17 95.5062V100H414.025V70.7294H419.47V95.5062H431.17ZM461.945 85.3647C461.945 87.5104 461.587 89.5009 460.872 91.3362C460.17 93.158 459.171 94.737 457.876 96.073C456.58 97.409 455.022 98.4548 453.2 99.2105C451.378 99.9528 449.354 100.324 447.127 100.324C444.914 100.324 442.896 99.9528 441.075 99.2105C439.253 98.4548 437.687 97.409 436.378 96.073C435.083 94.737 434.077 93.158 433.362 91.3362C432.647 89.5009 432.289 87.5104 432.289 85.3647C432.289 83.219 432.647 81.2352 433.362 79.4134C434.077 77.5781 435.083 75.9924 436.378 74.6564C437.687 73.3204 439.253 72.2813 441.075 71.5391C442.896 70.7834 444.914 70.4055 447.127 70.4055C448.612 70.4055 450.008 70.581 451.317 70.9318C452.626 71.2692 453.827 71.755 454.92 72.3893C456.014 73.01 456.992 73.7725 457.856 74.6767C458.733 75.5673 459.475 76.566 460.082 77.6726C460.69 78.7791 461.148 79.9802 461.459 81.2757C461.783 82.5712 461.945 83.9342 461.945 85.3647ZM456.378 85.3647C456.378 83.7588 456.162 82.3216 455.73 81.0531C455.298 79.771 454.684 78.6847 453.888 77.794C453.092 76.9033 452.12 76.2219 450.973 75.7495C449.84 75.2772 448.558 75.041 447.127 75.041C445.697 75.041 444.408 75.2772 443.261 75.7495C442.127 76.2219 441.156 76.9033 440.346 77.794C439.55 78.6847 438.936 79.771 438.504 81.0531C438.072 82.3216 437.856 83.7588 437.856 85.3647C437.856 86.9706 438.072 88.4146 438.504 89.6966C438.936 90.9651 439.55 92.0447 440.346 92.9354C441.156 93.8126 442.127 94.4873 443.261 94.9596C444.408 95.432 445.697 95.6681 447.127 95.6681C448.558 95.6681 449.84 95.432 450.973 94.9596C452.12 94.4873 453.092 93.8126 453.888 92.9354C454.684 92.0447 455.298 90.9651 455.73 89.6966C456.162 88.4146 456.378 86.9706 456.378 85.3647ZM478.508 95.6074C479.56 95.6074 480.498 95.432 481.321 95.0811C482.158 94.7302 482.86 94.2376 483.427 93.6034C483.993 92.9691 484.425 92.1999 484.722 91.2957C485.032 90.3916 485.188 89.3795 485.188 88.2594V70.7294H490.633V88.2594C490.633 90.0002 490.349 91.6129 489.783 93.0973C489.229 94.5683 488.426 95.8435 487.374 96.9231C486.335 97.9892 485.066 98.8259 483.568 99.4332C482.07 100.027 480.383 100.324 478.508 100.324C476.618 100.324 474.925 100.027 473.427 99.4332C471.929 98.8259 470.654 97.9892 469.601 96.9231C468.562 95.8435 467.759 94.5683 467.192 93.0973C466.639 91.6129 466.362 90.0002 466.362 88.2594V70.7294H471.807V88.2391C471.807 89.3592 471.956 90.3713 472.253 91.2755C472.563 92.1797 473.002 92.9556 473.568 93.6034C474.149 94.2376 474.85 94.7302 475.674 95.0811C476.51 95.432 477.455 95.6074 478.508 95.6074ZM522.765 85.3647C522.765 87.5104 522.408 89.4807 521.692 91.2755C520.977 93.0703 519.972 94.6155 518.676 95.911C517.381 97.2065 515.822 98.2119 514 98.9271C512.178 99.6424 510.154 100 507.928 100H496.774V70.7294H507.928C510.154 70.7294 512.178 71.0938 514 71.8225C515.822 72.5377 517.381 73.5431 518.676 74.8386C519.972 76.1206 520.977 77.6591 521.692 79.4539C522.408 81.2487 522.765 83.219 522.765 85.3647ZM517.178 85.3647C517.178 83.7588 516.962 82.3216 516.531 81.0531C516.112 79.771 515.498 78.6914 514.689 77.8143C513.892 76.9236 512.921 76.2421 511.774 75.7698C510.64 75.2974 509.358 75.0613 507.928 75.0613H502.239V95.6681H507.928C509.358 95.6681 510.64 95.432 511.774 94.9596C512.921 94.4873 513.892 93.8126 514.689 92.9354C515.498 92.0447 516.112 90.9651 516.531 89.6966C516.962 88.4146 517.178 86.9706 517.178 85.3647Z" fill="#002F47"/>
<defs>
<filter id="filter0_d" x="0.00902939" y="0.0966549" width="590.982" height="338.571" filterUnits="userSpaceOnUse" color-interpolation-filters="sRGB">
<feFlood flood-opacity="0" result="BackgroundImageFix"/>
<feColorMatrix in="SourceAlpha" type="matrix" values="0 0 0 0 0 0 0 0 0 0 0 0 0 0 0 0 0 0 127 0" result="hardAlpha"/>
<feOffset dy="5.08763"/>
<feGaussianBlur stdDeviation="6.99549"/>
<feColorMatrix type="matrix" values="0 0 0 0 0 0 0 0 0 0.184314 0 0 0 0 0.278431 0 0 0 0.6 0"/>
<feBlend mode="normal" in2="BackgroundImageFix" result="effect1_dropShadow"/>
<feBlend mode="normal" in="SourceGraphic" in2="effect1_dropShadow" result="shape"/>
</filter>
<filter id="filter1_i" x="14" y="9" width="563" height="314.589" filterUnits="userSpaceOnUse" color-interpolation-filters="sRGB">
<feFlood flood-opacity="0" result="BackgroundImageFix"/>
<feBlend mode="normal" in="SourceGraphic" in2="BackgroundImageFix" result="shape"/>
<feColorMatrix in="SourceAlpha" type="matrix" values="0 0 0 0 0 0 0 0 0 0 0 0 0 0 0 0 0 0 127 0" result="hardAlpha"/>
<feOffset dy="24"/>
<feGaussianBlur stdDeviation="2"/>
<feComposite in2="hardAlpha" operator="arithmetic" k2="-1" k3="1"/>
<feColorMatrix type="matrix" values="0 0 0 0 1 0 0 0 0 1 0 0 0 0 1 0 0 0 0.33 0"/>
<feBlend mode="normal" in2="shape" result="effect1_innerShadow"/>
</filter>
</defs>
</svg>
